<svg id="Capa_1" enable-background="new 0 0 512 512" height="512" viewBox="0 0 512 512" width="512" xmlns="http://www.w3.org/2000/svg"><g><path d="m483.159 396.309c.988-2.66 1.229-5.567.615-8.391-.891-4.102-3.462-7.642-7.088-9.763l-95.312-55.748 35.104-20.67c4.58-2.697 7.391-7.611 7.391-12.921v-104.091c0-7.169-5.08-13.336-12.125-14.718l-24.384-4.786v-11.043c0-25.055-7.133-48.815-19.69-69.059 14.832-7.342 25.057-22.615 25.057-40.235 0-24.749-20.164-44.884-44.948-44.884h-93.315c-.151 0-.293.031-.438.05-18.699.811-34.464 13.083-40.42 29.942-52.818 17.94-88.967 67.755-88.967 124.186v11.043l-24.384 4.786c-7.044 1.382-12.125 7.549-12.125 14.718v104.092c0 5.31 2.812 10.224 7.391 12.921l35.567 20.942-94.845 55.475c-3.626 2.121-6.197 5.662-7.088 9.763-.568 2.613-.413 5.3.394 7.794-18.535 14.964-29.549 37.525-29.549 61.992v39.296c0 8.284 6.725 15 15.021 15h481.957c8.296 0 15.021-6.716 15.021-15v-39.296c.001-24.081-10.746-46.414-28.84-61.395zm-89.332-116.061-62.721 36.931v-132.426l62.721 12.31zm-152.848-107.288v179.598l-30.042-17.69v-156.011zm30.042 0 30.043 5.897v156.012l-30.043 17.69zm91.663-128.076c0 8.207-6.686 14.884-14.905 14.884-.178 0-.347.032-.518.059-13.632-13.176-30.198-23.489-48.842-29.827h49.36c8.219 0 14.905 6.677 14.905 14.884zm-121.589 0c0-8.207 6.686-14.884 14.905-14.884s14.905 6.677 14.905 14.884v38.182h-29.81zm-86.413 109.294c0-39.015 22.4-73.921 56.371-90.704v34.593c0 8.284 6.725 15 15.021 15h59.852c8.296 0 15.021-6.716 15.021-15v-34.59c33.966 16.787 56.371 51.702 56.371 90.701v5.146l-98.422-19.318c-1.913-.376-3.88-.376-5.793 0l-98.422 19.318v-5.146zm-36.509 42.886 62.721-12.31v132.426l-62.721-36.931zm42.537 143.058 87.66 51.616c2.354 1.386 4.992 2.079 7.63 2.079s5.276-.693 7.63-2.079l88.123-51.889 95.125 55.639c-44.814 54.45-114.774 86.512-190.413 86.512-75.638 0-145.599-32.062-190.413-86.512zm-130.668 117.582c0-14.79 6.453-28.463 17.374-37.797 22.389 25.7 49.818 46.681 80.563 62.093h-97.937zm451.915 24.296h-96.994c30.558-15.318 57.841-36.138 80.154-61.624 10.592 9.331 16.84 22.823 16.84 37.328z"/></g></svg>